<svg width="16" height="16" viewBox="0 0 16 16" fill="none" xmlns="http://www.w3.org/2000/svg">
<path d="M8 14C11.3137 14 14 11.3137 14 8C14 4.68629 11.3137 2 8 2C4.68629 2 2 4.68629 2 8C2 11.3137 4.68629 14 8 14Z" stroke="#475569" stroke-linecap="round" stroke-linejoin="round"/>
<path d="M9.66673 6.00016C9.32994 5.66072 8.91461 5.43955 8.47057 5.36318C8.02652 5.28682 7.57263 5.35852 7.16335 5.56966C6.75407 5.78081 6.4068 6.12244 6.16321 6.55356C5.91961 6.98468 5.79004 7.48697 5.79004 8.00016C5.79004 8.51336 5.91961 9.01565 6.16321 9.44677C6.4068 9.87789 6.75407 10.2195 7.16335 10.4307C7.57263 10.6418 8.02652 10.7135 8.47057 10.6371C8.91461 10.5608 9.32994 10.3396 9.66673 10.0002" stroke="#475569" stroke-linecap="round" stroke-linejoin="round"/>
</svg>
