<svg xmlns="http://www.w3.org/2000/svg" width="32" height="32"><g fill-rule="evenodd" transform="translate(0 -1020.362)"><circle cx="16" cy="1036.362" r="16" fill="#424242"/><path style="line-height:normal;text-indent:0;text-align:start;text-decoration-line:none;text-decoration-style:solid;text-decoration-color:#000;text-transform:none;block-progression:tb;isolation:auto;mix-blend-mode:normal" fill="#fff" d="M5.45 5a.5.5 0 0 0 .05 1h5a.5.5 0 1 0 0-1h-5a.5.5 0 0 0-.05 0Zm0 3a.5.5 0 0 0 .05 1h5a.5.5 0 1 0 0-1h-5a.5.5 0 0 0-.05 0Zm0 3a.5.5 0 0 0 .05 1h5a.5.5 0 1 0 0-1h-5a.5.5 0 0 0-.05 0z" color="#000" font-family="sans-serif" font-weight="400" overflow="visible" transform="translate(8.01 1028.363)"/></g></svg>